<?xml version="1.0" encoding="UTF-8" standalone="no"?>
<!-- Created with Inkscape (http://www.inkscape.org/) -->

<svg
   xmlns:dc="http://purl.org/dc/elements/1.1/"
   xmlns:cc="http://creativecommons.org/ns#"
   xmlns:rdf="http://www.w3.org/1999/02/22-rdf-syntax-ns#"
   xmlns:svg="http://www.w3.org/2000/svg"
   xmlns="http://www.w3.org/2000/svg"
   xmlns:sodipodi="http://sodipodi.sourceforge.net/DTD/sodipodi-0.dtd"
   xmlns:inkscape="http://www.inkscape.org/namespaces/inkscape"
   width="1024"
   height="480"
   viewBox="0 0 1024 480.00001"
   id="svg4557"
   version="1.1"
   inkscape:version="0.91 r13725"
   sodipodi:docname="background.svg">
  <defs
     id="defs4559" />
  <sodipodi:namedview
     id="base"
     pagecolor="#ffffff"
     bordercolor="#666666"
     borderopacity="1.0"
     inkscape:pageopacity="0.0"
     inkscape:pageshadow="2"
     inkscape:zoom="0.7"
     inkscape:cx="437.5303"
     inkscape:cy="99.580131"
     inkscape:document-units="px"
     inkscape:current-layer="layer1"
     showgrid="true"
     units="px"
     inkscape:showpageshadow="false"
     inkscape:snap-global="true"
     showguides="true"
     inkscape:guide-bbox="true"
     inkscape:window-width="1855"
     inkscape:window-height="1056"
     inkscape:window-x="65"
     inkscape:window-y="24"
     inkscape:window-maximized="1">
    <inkscape:grid
       type="xygrid"
       id="grid5107" />
    <sodipodi:guide
       position="-20,120"
       orientation="0,1"
       id="guide5109" />
  </sodipodi:namedview>
  <metadata
     id="metadata4562">
    <rdf:RDF>
      <cc:Work
         rdf:about="">
        <dc:format>image/svg+xml</dc:format>
        <dc:type
           rdf:resource="http://purl.org/dc/dcmitype/StillImage" />
        <dc:title></dc:title>
      </cc:Work>
    </rdf:RDF>
  </metadata>
  <g
     inkscape:label="Layer 1"
     inkscape:groupmode="layer"
     id="layer1"
     transform="translate(0,-572.36218)">
    <path
       style="fill:#dcf7c2;fill-rule:evenodd;stroke:none;stroke-width:1px;stroke-linecap:butt;stroke-linejoin:miter;stroke-opacity:1;fill-opacity:1"
       d="M -4.9579195,1057.4427 -29.97896,932.36218 0,932.36218 c 0,0 59.599,-34.55334 104.04571,-35.56349 44.44671,-1.01015 123.23861,23.23351 140.41121,23.23351 17.17259,0 83.84266,-55.55839 151.52288,-54.54824 67.68022,1.01015 100.0051,92.93403 100.0051,92.93403 0,0 9.09137,-107.07617 44.44671,-113.13708 35.35534,-6.06092 40.4061,34.34518 40.4061,34.34518 0,0 0,-132.32998 38.3858,-133.34013 38.3858,-1.01015 52.52793,132.32998 52.52793,132.32998 0,0 25.25382,-121.2183 125.25892,-121.2183 100.0051,0 158.59395,230.31478 158.59395,230.31478 0,0 9.40863,-73.12725 41.52648,-74.42569 C 1020,912.36218 1024,932.36218 1024,932.36218 l 46.7617,149.29442 z"
       id="path5105"
       inkscape:connector-curvature="0"
       sodipodi:nodetypes="cccssscscscscsccc" />
  </g>
</svg>
